<svg width="18" height="19" viewBox="0 0 18 19" fill="none" xmlns="http://www.w3.org/2000/svg">
<path d="M7.5 17H10.5C14.25 17 15.75 15.5 15.75 11.75V7.25C15.75 3.5 14.25 2 10.5 2H7.5C3.75 2 2.25 3.5 2.25 7.25V11.75C2.25 15.5 3.75 17 7.5 17Z" stroke="#292D32" stroke-width="1.5" stroke-linecap="round" stroke-linejoin="round"/>
<path d="M12.375 6.18506V6.93506C12.375 7.55006 11.8725 8.06006 11.25 8.06006H6.75C6.135 8.06006 5.625 7.55756 5.625 6.93506V6.18506C5.625 5.57006 6.1275 5.06006 6.75 5.06006H11.25C11.8725 5.06006 12.375 5.56256 12.375 6.18506Z" stroke="#292D32" stroke-width="1.5" stroke-linecap="round" stroke-linejoin="round"/>
<path d="M6.10209 11H6.11075" stroke="#292D32" stroke-width="2" stroke-linecap="round" stroke-linejoin="round"/>
<path d="M8.99638 11H9.00504" stroke="#292D32" stroke-width="2" stroke-linecap="round" stroke-linejoin="round"/>
<path d="M11.8907 11H11.8993" stroke="#292D32" stroke-width="2" stroke-linecap="round" stroke-linejoin="round"/>
<path d="M6.10209 13.625H6.11075" stroke="#292D32" stroke-width="2" stroke-linecap="round" stroke-linejoin="round"/>
<path d="M8.99638 13.625H9.00504" stroke="#292D32" stroke-width="2" stroke-linecap="round" stroke-linejoin="round"/>
<path d="M11.8907 13.625H11.8993" stroke="#292D32" stroke-width="2" stroke-linecap="round" stroke-linejoin="round"/>
</svg>
