<svg width="20" height="20" viewBox="0 0 20 20" fill="none" xmlns="http://www.w3.org/2000/svg">
<g opacity="0.1">
<path d="M10.4157 1.6001C14.9597 1.6001 18.3997 5.32569 18.3997 9.58808C18.3997 14.5315 14.3677 17.6001 10.3997 17.6001C9.08766 17.6001 7.63166 17.2476 6.46366 16.5585C6.05566 16.3102 5.71166 16.1259 5.27166 16.2701L3.65566 16.7508C3.24766 16.879 2.87966 16.5585 2.99966 16.1259L3.53566 14.3312C3.62366 14.0828 3.60766 13.8184 3.47966 13.6101C2.79166 12.3442 2.39966 10.9581 2.39966 9.61212C2.39966 5.39779 5.76766 1.6001 10.4157 1.6001ZM14.0717 8.59459C13.5037 8.59459 13.0477 9.05127 13.0477 9.62013C13.0477 10.181 13.5037 10.6457 14.0717 10.6457C14.6397 10.6457 15.0957 10.181 15.0957 9.62013C15.0957 9.05127 14.6397 8.59459 14.0717 8.59459ZM10.3837 8.59459C9.82366 8.58658 9.35966 9.05127 9.35966 9.61212C9.35966 10.181 9.81566 10.6377 10.3837 10.6457C10.9517 10.6457 11.4077 10.181 11.4077 9.62013C11.4077 9.05127 10.9517 8.59459 10.3837 8.59459ZM6.69566 8.59459C6.12766 8.59459 5.67166 9.05127 5.67166 9.62013C5.67166 10.181 6.13566 10.6457 6.69566 10.6457C7.26366 10.6377 7.71966 10.181 7.71966 9.62013C7.71966 9.05127 7.26366 8.59459 6.69566 8.59459Z" fill="black"/>
</g>
</svg>
