<svg width="32" height="32" viewBox="0 0 32 32" fill="none" xmlns="http://www.w3.org/2000/svg">
<path d="M24.6668 16.8667V21.8C24.6668 25.96 20.7868 29.3334 16.0002 29.3334C11.2135 29.3334 7.3335 25.96 7.3335 21.8V16.8667C7.3335 21.0267 11.2135 24 16.0002 24C20.7868 24 24.6668 21.0267 24.6668 16.8667Z" stroke="white" stroke-width="1.5" stroke-linecap="round" stroke-linejoin="round"/>
<path d="M24.6668 10.2C24.6668 11.4133 24.3335 12.5333 23.7468 13.4933C22.3202 15.84 19.3868 17.3333 16.0002 17.3333C12.6135 17.3333 9.68017 15.84 8.2535 13.4933C7.66683 12.5333 7.3335 11.4133 7.3335 10.2C7.3335 8.11996 8.30682 6.23996 9.86682 4.87996C11.4402 3.50663 13.6002 2.66663 16.0002 2.66663C18.4002 2.66663 20.5602 3.50663 22.1335 4.86663C23.6935 6.23996 24.6668 8.11996 24.6668 10.2Z" stroke="white" stroke-width="1.5" stroke-linecap="round" stroke-linejoin="round"/>
<path d="M24.6668 10.2V16.8666C24.6668 21.0266 20.7868 24 16.0002 24C11.2135 24 7.3335 21.0266 7.3335 16.8666V10.2C7.3335 6.03996 11.2135 2.66663 16.0002 2.66663C18.4002 2.66663 20.5602 3.50663 22.1335 4.86663C23.6935 6.23996 24.6668 8.11996 24.6668 10.2Z" stroke="white" stroke-width="1.5" stroke-linecap="round" stroke-linejoin="round"/>
</svg>
