<svg width="32" height="32" viewBox="0 0 32 32" fill="none" xmlns="http://www.w3.org/2000/svg">
<path d="M18.6665 21.3333C18.6665 23.6933 17.6398 25.8266 15.9998 27.2799C14.5865 28.5599 12.7198 29.3333 10.6665 29.3333C6.25317 29.3333 2.6665 25.7466 2.6665 21.3333C2.6665 17.6533 5.17317 14.5333 8.55984 13.6133C9.47984 15.9333 11.4532 17.7199 13.8932 18.3866C14.5598 18.5733 15.2665 18.6666 15.9998 18.6666C16.7332 18.6666 17.4398 18.5733 18.1065 18.3866C18.4665 19.2933 18.6665 20.2933 18.6665 21.3333Z" stroke="white" stroke-width="1.5" stroke-linecap="round" stroke-linejoin="round"/>
<path d="M24 10.6666C24 11.7066 23.8 12.7066 23.44 13.6133C22.52 15.9333 20.5467 17.72 18.1067 18.3866C17.44 18.5733 16.7333 18.6666 16 18.6666C15.2667 18.6666 14.56 18.5733 13.8933 18.3866C11.4533 17.72 9.48 15.9333 8.56 13.6133C8.2 12.7066 8 11.7066 8 10.6666C8 6.25329 11.5867 2.66663 16 2.66663C20.4133 2.66663 24 6.25329 24 10.6666Z" stroke="white" stroke-width="1.5" stroke-linecap="round" stroke-linejoin="round"/>
<path d="M29.3333 21.3333C29.3333 25.7466 25.7467 29.3333 21.3333 29.3333C19.28 29.3333 17.4133 28.5599 16 27.2799C17.64 25.8266 18.6667 23.6933 18.6667 21.3333C18.6667 20.2933 18.4667 19.2933 18.1067 18.3866C20.5467 17.7199 22.52 15.9333 23.44 13.6133C26.8267 14.5333 29.3333 17.6533 29.3333 21.3333Z" stroke="white" stroke-width="1.5" stroke-linecap="round" stroke-linejoin="round"/>
</svg>
