<svg width="32" height="32" viewBox="0 0 32 32" fill="none" xmlns="http://www.w3.org/2000/svg">
<path d="M6.56006 27.04L8.92006 28.8666C9.22673 29.1733 9.90673 29.3199 10.3734 29.3199H13.2667C14.1867 29.3199 15.1734 28.64 15.4001 27.72L17.2267 22.1599C17.6134 21.0933 16.9201 20.1733 15.7734 20.1733H12.7201C12.2667 20.1733 11.8801 19.7865 11.9601 19.2532L12.3467 16.8132C12.4934 16.1332 12.0401 15.3599 11.3601 15.1332C10.7467 14.9066 9.98673 15.2133 9.68006 15.6666L6.56006 20.3199" stroke="white" stroke-width="1.5" stroke-miterlimit="10"/>
<path d="M2.6665 27.04V19.5733C2.6665 18.5067 3.11984 18.1199 4.1865 18.1199H4.9465C6.01317 18.1199 6.4665 18.5067 6.4665 19.5733V27.04C6.4665 28.1066 6.01317 28.4932 4.9465 28.4932H4.1865C3.11984 28.4932 2.6665 28.12 2.6665 27.04Z" stroke="white" stroke-width="1.5" stroke-linecap="round" stroke-linejoin="round"/>
<path d="M25.4399 4.96L23.0799 3.13334C22.7733 2.82667 22.0933 2.68005 21.6266 2.68005H18.7333C17.8133 2.68005 16.8266 3.35999 16.5999 4.27999L14.7733 9.84005C14.3866 10.9067 15.0799 11.8267 16.2266 11.8267H19.2799C19.7333 11.8267 20.1199 12.2135 20.0399 12.7468L19.6533 15.1867C19.5066 15.8667 19.9599 16.6401 20.6399 16.8667C21.2533 17.0934 22.0133 16.7867 22.3199 16.3334L25.4399 11.6801" stroke="white" stroke-width="1.5" stroke-miterlimit="10"/>
<path d="M29.3332 4.96V12.4266C29.3332 13.4933 28.8799 13.8801 27.8132 13.8801H27.0532C25.9865 13.8801 25.5332 13.4933 25.5332 12.4266V4.96C25.5332 3.89333 25.9865 3.50671 27.0532 3.50671H27.8132C28.8799 3.50671 29.3332 3.88 29.3332 4.96Z" stroke="white" stroke-width="1.5" stroke-linecap="round" stroke-linejoin="round"/>
</svg>
