<svg width="32" height="32" viewBox="0 0 32 32" fill="none" xmlns="http://www.w3.org/2000/svg">
<path d="M4.66643 27.3334C5.77309 28.44 7.55976 28.44 8.66643 27.3334L25.9998 10C27.1064 8.89338 27.1064 7.10671 25.9998 6.00004C24.8931 4.89338 23.1064 4.89338 21.9998 6.00004L4.66643 23.3334C3.55976 24.44 3.55976 26.2267 4.66643 27.3334Z" stroke="white" stroke-width="1.5" stroke-linecap="round" stroke-linejoin="round"/>
<path d="M24.0132 11.9867L20.0132 7.98669" stroke="white" stroke-width="1.5" stroke-linecap="round" stroke-linejoin="round"/>
<path d="M11.3335 3.25329L13.3335 2.66663L12.7468 4.66663L13.3335 6.66663L11.3335 6.07996L9.3335 6.66663L9.92016 4.66663L9.3335 2.66663L11.3335 3.25329Z" stroke="white" stroke-linecap="round" stroke-linejoin="round"/>
<path d="M6 11.2533L8 10.6666L7.41333 12.6666L8 14.6666L6 14.08L4 14.6666L4.58667 12.6666L4 10.6666L6 11.2533Z" stroke="white" stroke-linecap="round" stroke-linejoin="round"/>
<path d="M26 17.92L28 17.3334L27.4133 19.3334L28 21.3334L26 20.7467L24 21.3334L24.5867 19.3334L24 17.3334L26 17.92Z" stroke="white" stroke-linecap="round" stroke-linejoin="round"/>
</svg>
