<svg width="32" height="32" viewBox="0 0 32 32" fill="none" xmlns="http://www.w3.org/2000/svg">
<path d="M25.3332 12C25.3332 13.9333 24.7598 15.7066 23.7732 17.1866C22.3332 19.32 20.0532 20.8266 17.3998 21.2133C16.9465 21.2933 16.4798 21.3333 15.9998 21.3333C15.5198 21.3333 15.0532 21.2933 14.5998 21.2133C11.9465 20.8266 9.6665 19.32 8.2265 17.1866C7.23984 15.7066 6.6665 13.9333 6.6665 12C6.6665 6.83996 10.8398 2.66663 15.9998 2.66663C21.1598 2.66663 25.3332 6.83996 25.3332 12Z" stroke="white" stroke-width="1.5" stroke-linecap="round" stroke-linejoin="round"/>
<path d="M28.3333 24.6266L26.1333 25.1466C25.6399 25.2666 25.2533 25.64 25.1466 26.1333L24.6799 28.0933C24.4266 29.16 23.0666 29.48 22.3599 28.64L15.9999 21.3333L9.63994 28.6533C8.93328 29.4933 7.57328 29.1733 7.31994 28.1066L6.85328 26.1466C6.73328 25.6533 6.34661 25.2666 5.86661 25.16L3.66661 24.64C2.65328 24.4 2.29328 23.1333 3.02661 22.3999L8.22661 17.2C9.66661 19.3333 11.9466 20.84 14.5999 21.2266C15.0533 21.3066 15.5199 21.3466 15.9999 21.3466C16.4799 21.3466 16.9466 21.3066 17.3999 21.2266C20.0533 20.84 22.3333 19.3333 23.7733 17.2L28.9733 22.3999C29.7066 23.1199 29.3466 24.3866 28.3333 24.6266Z" stroke="white" stroke-width="1.5" stroke-linecap="round" stroke-linejoin="round"/>
<path d="M16.7731 7.97337L17.5598 9.5467C17.6665 9.76003 17.9465 9.97337 18.1998 10.0134L19.6265 10.2534C20.5331 10.4 20.7465 11.0667 20.0931 11.72L18.9865 12.8267C18.7998 13.0134 18.6931 13.3734 18.7598 13.64L19.0798 15.0134C19.3331 16.0934 18.7598 16.52 17.7998 15.9467L16.4665 15.16C16.2265 15.0134 15.8265 15.0134 15.5865 15.16L14.2531 15.9467C13.2931 16.5067 12.7198 16.0934 12.9731 15.0134L13.2931 13.64C13.3465 13.3867 13.2531 13.0134 13.0665 12.8267L11.9598 11.72C11.3065 11.0667 11.5198 10.4134 12.4265 10.2534L13.8531 10.0134C14.0931 9.97337 14.3731 9.76003 14.4798 9.5467L15.2665 7.97337C15.6531 7.12004 16.3465 7.12004 16.7731 7.97337Z" stroke="white" stroke-width="1.5" stroke-linecap="round" stroke-linejoin="round"/>
</svg>
