<svg width="22" height="22" viewBox="0 0 22 22" fill="none" xmlns="http://www.w3.org/2000/svg">
<g opacity="0.5">
<path d="M14.6933 2.00342C17.7431 2.00342 19.7853 4.14456 19.7853 7.32928V14.6793C19.7853 17.8551 17.7431 19.9962 14.6933 19.9962H6.89344C3.84366 19.9962 1.79248 17.8551 1.79248 14.6793V7.32928C1.79248 4.14456 3.84366 2.00342 6.89344 2.00342H14.6933ZM14.8193 9.92114C14.2255 9.92114 13.7397 10.4061 13.7397 10.9998C13.7397 11.5936 14.2255 12.0794 14.8193 12.0794C15.413 12.0794 15.8898 11.5936 15.8898 10.9998C15.8898 10.4061 15.413 9.92114 14.8193 9.92114ZM10.7889 9.92114C10.1951 9.92114 9.70931 10.4061 9.70931 10.9998C9.70931 11.5936 10.1951 12.0794 10.7889 12.0794C11.3826 12.0794 11.8684 11.5936 11.8684 10.9998C11.8684 10.4061 11.3826 9.92114 10.7889 9.92114ZM6.75849 9.92114C6.16473 9.92114 5.67892 10.4061 5.67892 10.9998C5.67892 11.5936 6.16473 12.0794 6.75849 12.0794C7.35225 12.0794 7.83806 11.5936 7.83806 10.9998C7.83806 10.4061 7.35225 9.92114 6.75849 9.92114Z" fill="#051030"/>
</g>
</svg>
