<svg width="20" height="20" viewBox="0 0 20 20" fill="none" xmlns="http://www.w3.org/2000/svg">
<g opacity="0.1">
<path d="M13.4718 1.99951C16.1838 1.99951 17.9998 3.90351 17.9998 6.73551V13.2715C17.9998 16.0955 16.1838 17.9995 13.4718 17.9995H6.53576C3.82376 17.9995 1.99976 16.0955 1.99976 13.2715V6.73551C1.99976 3.90351 3.82376 1.99951 6.53576 1.99951H13.4718ZM13.5838 9.04031C13.0558 9.04031 12.6238 9.47151 12.6238 9.99951C12.6238 10.5275 13.0558 10.9595 13.5838 10.9595C14.1118 10.9595 14.5358 10.5275 14.5358 9.99951C14.5358 9.47151 14.1118 9.04031 13.5838 9.04031ZM9.99976 9.04031C9.47176 9.04031 9.03976 9.47151 9.03976 9.99951C9.03976 10.5275 9.47176 10.9595 9.99976 10.9595C10.5278 10.9595 10.9598 10.5275 10.9598 9.99951C10.9598 9.47151 10.5278 9.04031 9.99976 9.04031ZM6.41576 9.04031C5.88776 9.04031 5.45576 9.47151 5.45576 9.99951C5.45576 10.5275 5.88776 10.9595 6.41576 10.9595C6.94376 10.9595 7.37576 10.5275 7.37576 9.99951C7.37576 9.47151 6.94376 9.04031 6.41576 9.04031Z" fill="black"/>
</g>
</svg>
