<svg width="24" height="25" viewBox="0 0 24 25" fill="none" xmlns="http://www.w3.org/2000/svg">
<g opacity="0.1">
<path d="M16.34 2.49988C19.73 2.49988 22 4.87988 22 8.41988V16.5899C22 20.1199 19.73 22.4999 16.34 22.4999H7.67C4.28 22.4999 2 20.1199 2 16.5899V8.41988C2 4.87988 4.28 2.49988 7.67 2.49988H16.34ZM16.48 11.3009C15.82 11.3009 15.28 11.8399 15.28 12.4999C15.28 13.1599 15.82 13.6999 16.48 13.6999C17.14 13.6999 17.67 13.1599 17.67 12.4999C17.67 11.8399 17.14 11.3009 16.48 11.3009ZM12 11.3009C11.34 11.3009 10.8 11.8399 10.8 12.4999C10.8 13.1599 11.34 13.6999 12 13.6999C12.66 13.6999 13.2 13.1599 13.2 12.4999C13.2 11.8399 12.66 11.3009 12 11.3009ZM7.52 11.3009C6.86 11.3009 6.32 11.8399 6.32 12.4999C6.32 13.1599 6.86 13.6999 7.52 13.6999C8.18 13.6999 8.72 13.1599 8.72 12.4999C8.72 11.8399 8.18 11.3009 7.52 11.3009Z" fill="black"/>
</g>
</svg>
