<svg width="107" height="19" viewBox="0 0 107 19" fill="none" xmlns="http://www.w3.org/2000/svg">
<path d="M1 1.55224L11.1979 10.2961C13.1105 11.936 16.0448 11.4207 17.2841 9.22708L19.7435 4.87399C21.238 2.22879 25.0198 2.14975 26.6235 4.73021L28.5737 7.86823C30.1578 10.417 33.8802 10.3786 35.4113 7.79767L37.2697 4.66502C38.8008 2.08406 42.5232 2.04564 44.1072 4.59446L46.2213 7.99617C47.7863 10.5143 51.451 10.5143 53.016 7.99617L55.2097 4.46651C56.7746 1.94838 60.4394 1.94838 62.0044 4.46651L63.9445 7.58829C65.5685 10.2014 69.4113 10.0794 70.8663 7.36858L72.087 5.0941C73.542 2.38331 77.3848 2.26133 79.0088 4.87439L80.949 7.99617C82.5139 10.5143 86.1787 10.5143 87.7437 7.99617L90.0551 4.27695C91.5908 1.80588 95.167 1.74885 96.7807 4.16971L106 18" stroke="url(#paint0_linear_439_1487)" stroke-opacity="0.51" stroke-width="2"/>
<defs>
<linearGradient id="paint0_linear_439_1487" x1="1" y1="8.5" x2="106" y2="8.5" gradientUnits="userSpaceOnUse">
<stop stop-color="#C39A6D"/>
<stop offset="1" stop-color="#051030"/>
</linearGradient>
</defs>
</svg>
