<svg width="18" height="18" viewBox="0 0 18 18" fill="none" xmlns="http://www.w3.org/2000/svg">
<path d="M8.06369 12.6453V14.1678C8.06369 15.4578 6.86368 16.5003 5.38618 16.5003C3.90868 16.5003 2.70117 15.4578 2.70117 14.1678V12.6453C2.70117 13.9353 3.90118 14.8503 5.38618 14.8503C6.86368 14.8503 8.06369 13.9278 8.06369 12.6453Z" stroke="#292D32" stroke-width="1.5" stroke-linecap="round" stroke-linejoin="round"/>
<path d="M8.06261 10.5825C8.06261 10.9575 7.9576 11.3025 7.7776 11.6025C7.3351 12.33 6.42759 12.7875 5.37759 12.7875C4.32759 12.7875 3.42008 12.3225 2.97758 11.6025C2.79758 11.3025 2.69263 10.9575 2.69263 10.5825C2.69263 9.93749 2.99261 9.35999 3.47261 8.93999C3.96011 8.51249 4.62759 8.25751 5.37009 8.25751C6.11259 8.25751 6.78011 8.51999 7.26761 8.93999C7.76261 9.35249 8.06261 9.93749 8.06261 10.5825Z" stroke="#292D32" stroke-width="1.5" stroke-linecap="round" stroke-linejoin="round"/>
<path d="M8.06369 10.5825V12.645C8.06369 13.935 6.86368 14.85 5.38618 14.85C3.90868 14.85 2.70117 13.9275 2.70117 12.645V10.5825C2.70117 9.29249 3.90118 8.25 5.38618 8.25C6.12868 8.25 6.79621 8.51248 7.28371 8.93248C7.76371 9.35248 8.06369 9.93749 8.06369 10.5825Z" stroke="#292D32" stroke-width="1.5" stroke-linecap="round" stroke-linejoin="round"/>
<path d="M16.4999 8.22749V9.77254C16.4999 10.185 16.1699 10.5225 15.7499 10.5375H14.2799C13.4699 10.5375 12.7274 9.94501 12.6599 9.13501C12.6149 8.66251 12.7949 8.22001 13.1099 7.91251C13.3874 7.62751 13.7699 7.46252 14.1899 7.46252H15.7499C16.1699 7.47752 16.4999 7.81499 16.4999 8.22749Z" stroke="#292D32" stroke-width="1.5" stroke-linecap="round" stroke-linejoin="round"/>
<path d="M1.5 7.875V6.375C1.5 4.335 2.73 2.91 4.6425 2.67C4.8375 2.64 5.04 2.625 5.25 2.625H12C12.195 2.625 12.3825 2.63249 12.5625 2.66249C14.4975 2.88749 15.75 4.32 15.75 6.375V7.46251H14.19C13.77 7.46251 13.3875 7.62749 13.11 7.91249C12.795 8.21999 12.615 8.66249 12.66 9.13499C12.7275 9.94499 13.47 10.5375 14.28 10.5375H15.75V11.625C15.75 13.875 14.25 15.375 12 15.375H10.125" stroke="#292D32" stroke-width="1.5" stroke-linecap="round" stroke-linejoin="round"/>
</svg>
